<svg width="32" height="32" viewBox="0 0 32 32" fill="none" xmlns="http://www.w3.org/2000/svg">
  <defs>
    <linearGradient id="cosmicGrad" x1="0" y1="0" x2="32" y2="32" gradientUnits="userSpaceOnUse">
      <stop offset="0%" stop-color="#f0c040"/>
      <stop offset="50%" stop-color="#e8a030"/>
      <stop offset="100%" stop-color="#7c3aed"/>
    </linearGradient>
    <radialGradient id="glowGrad" cx="50%" cy="40%" r="50%">
      <stop offset="0%" stop-color="#f5d670"/>
      <stop offset="100%" stop-color="#f0c040" stop-opacity="0"/>
    </radialGradient>
  </defs>
  <rect width="32" height="32" rx="6" fill="#0a0a1a"/>
  <!-- Anvil base -->
  <path d="M8 22 L24 22 L26 26 L6 26 Z" fill="url(#cosmicGrad)" opacity="0.9"/>
  <!-- Anvil top -->
  <path d="M10 18 L22 18 L24 22 L8 22 Z" fill="url(#cosmicGrad)"/>
  <!-- Anvil horn -->
  <path d="M10 18 L6 16 L6 18 L10 18 Z" fill="url(#cosmicGrad)" opacity="0.8"/>
  <!-- Spark/star -->
  <circle cx="16" cy="12" r="3" fill="url(#glowGrad)"/>
  <path d="M16 7 L16.8 10.5 L16 9.5 L15.2 10.5 Z" fill="#f5d670" opacity="0.8"/>
  <path d="M16 17 L16.8 13.5 L16 14.5 L15.2 13.5 Z" fill="#f5d670" opacity="0.8"/>
  <path d="M11 12 L14.5 12.8 L13.5 12 L14.5 11.2 Z" fill="#f5d670" opacity="0.8"/>
  <path d="M21 12 L17.5 12.8 L18.5 12 L17.5 11.2 Z" fill="#f5d670" opacity="0.8"/>
  <!-- Small sparkles -->
  <circle cx="12" cy="9" r="0.5" fill="#f5d670" opacity="0.6"/>
  <circle cx="20" cy="10" r="0.5" fill="#f5d670" opacity="0.5"/>
  <circle cx="14" cy="7" r="0.4" fill="#7c3aed" opacity="0.6"/>
</svg>
